<?xml version="1.0" encoding="iso-8859-1"?>
<!-- Generator: Adobe Illustrator 19.0.0, SVG Export Plug-In . SVG Version: 6.00 Build 0)  -->
<svg version="1.1" id="Layer_1" xmlns="http://www.w3.org/2000/svg" xmlns:xlink="http://www.w3.org/1999/xlink" x="0px" y="0px"
	 viewBox="0 0 355 355" style="enable-background:new 0 0 355 355;" xml:space="preserve">
<g id="XMLID_964_">
	<g>
		<g>
			<polygon points="266.227,260.251 255.621,270.858 245.015,260.251 230.872,274.393 241.479,285 230.872,295.607 245.015,309.749 
				255.621,299.142 266.227,309.749 280.369,295.607 269.763,285 280.369,274.393 			"/>
			<path d="M305.118,235.502c-9.795-9.794-21.983-16.318-35.243-19.048c-11.43-20.831-28.317-38.018-48.741-49.769
				c19.555-17.503,31.884-42.921,31.884-71.168C253.018,42.849,210.169,0,157.5,0c-52.668,0-95.517,42.849-95.517,95.517
				c0,28.252,12.333,53.673,31.893,71.177c-16.703,9.604-31.084,22.849-42.128,38.965C37.115,227.012,29.38,251.95,29.38,277.776
				V330h172.635c1.302,1.545,2.663,3.052,4.108,4.497C219.345,347.719,236.923,355,255.62,355c18.698,0,36.276-7.281,49.498-20.502
				c13.221-13.221,20.502-30.8,20.502-49.498S318.339,248.724,305.118,235.502z M81.983,95.517C81.983,53.877,115.86,20,157.5,20
				c41.641,0,75.518,33.877,75.518,75.517c0,41.641-33.877,75.518-75.518,75.518C115.86,171.035,81.983,137.158,81.983,95.517z
				 M202.72,239.18c-0.312,0.361-0.631,0.717-0.935,1.083c-0.512,0.614-1.004,1.241-1.494,1.87
				c-0.138,0.179-0.281,0.354-0.417,0.534c-0.582,0.763-1.144,1.539-1.692,2.323c-0.019,0.027-0.038,0.054-0.057,0.081
				c-5.925,8.494-9.853,18.142-11.543,28.371c-0.001,0.005-0.002,0.01-0.003,0.015c-0.149,0.906-0.279,1.816-0.393,2.73
				c-0.028,0.218-0.055,0.437-0.08,0.655c-0.09,0.778-0.167,1.558-0.231,2.341c-0.013,0.154-0.034,0.306-0.045,0.459
				c-0.012,0.155-0.012,0.31-0.022,0.465c-0.065,0.953-0.111,1.91-0.138,2.87c-0.009,0.327-0.019,0.654-0.024,0.981
				c-0.005,0.347-0.025,0.691-0.025,1.039c0,0.647,0.03,1.289,0.047,1.933c0.007,0.236,0.008,0.472,0.017,0.708
				c0.286,7.755,1.832,15.283,4.534,22.359H49.38v-32.221c0-42.369,24.542-80.376,62.917-98.135
				c13.465,7.265,28.861,11.393,45.204,11.393c16.341,0,31.735-4.128,45.199-11.391c17.335,8.042,32.195,20.481,43.151,36.019
				c-0.203,0.028-0.403,0.066-0.605,0.096c-0.002,0-0.005,0.001-0.008,0.001c-1.087,0.16-2.167,0.35-3.243,0.561
				c-0.101,0.02-0.201,0.04-0.301,0.06c-1.012,0.203-2.019,0.428-3.02,0.676c-0.082,0.02-0.164,0.039-0.246,0.06
				c-3.215,0.809-6.364,1.846-9.428,3.106c-0.178,0.073-0.355,0.151-0.533,0.226c-0.801,0.337-1.596,0.689-2.384,1.057
				c-0.242,0.113-0.484,0.227-0.725,0.342c-0.748,0.359-1.489,0.734-2.225,1.121c-0.224,0.118-0.451,0.232-0.674,0.352
				c-0.894,0.483-1.78,0.982-2.655,1.505c-0.041,0.025-0.083,0.047-0.125,0.072c-0.92,0.553-1.828,1.131-2.725,1.728
				c-0.225,0.15-0.444,0.308-0.668,0.46c-0.65,0.444-1.295,0.896-1.932,1.362c-0.298,0.219-0.593,0.443-0.889,0.667
				c-0.562,0.426-1.119,0.861-1.67,1.305c-0.3,0.242-0.6,0.485-0.897,0.732c-0.565,0.471-1.121,0.954-1.672,1.444
				c-0.256,0.227-0.515,0.449-0.768,0.68c-0.792,0.723-1.573,1.462-2.336,2.225c-0.773,0.773-1.524,1.564-2.257,2.37
				C203.473,238.3,203.1,238.742,202.72,239.18z M290.976,320.355c-9.443,9.444-22,14.645-35.355,14.645
				c-13.354,0-25.911-5.201-35.354-14.645c-1.718-1.718-3.292-3.542-4.723-5.452l-0.537-0.746c-1.891-2.626-3.487-5.379-4.807-8.216
				c-2.993-6.482-4.578-13.588-4.578-20.941c0-8.333,2.026-16.353,5.842-23.502c0.017-0.031,0.034-0.062,0.05-0.093
				c0.34-0.633,0.697-1.259,1.065-1.878c0.073-0.122,0.146-0.245,0.22-0.367c0.32-0.529,0.653-1.05,0.994-1.568
				c0.115-0.174,0.227-0.348,0.344-0.52c0.315-0.466,0.643-0.926,0.975-1.383c0.145-0.199,0.286-0.399,0.434-0.596
				c0.323-0.432,0.66-0.855,0.999-1.278c0.164-0.205,0.323-0.412,0.491-0.615c0.355-0.43,0.725-0.85,1.096-1.269
				c0.161-0.181,0.314-0.367,0.478-0.546c0.538-0.591,1.089-1.172,1.658-1.741c0.645-0.645,1.308-1.266,1.981-1.871
				c0.216-0.195,0.44-0.379,0.659-0.569c0.464-0.403,0.931-0.801,1.406-1.185c0.266-0.215,0.537-0.422,0.807-0.631
				c0.444-0.343,0.891-0.68,1.344-1.006c0.288-0.208,0.579-0.413,0.871-0.614c0.451-0.311,0.908-0.612,1.368-0.907
				c0.297-0.191,0.594-0.383,0.895-0.567c0.481-0.294,0.969-0.574,1.459-0.852c0.286-0.162,0.569-0.331,0.858-0.487
				c0.615-0.332,1.239-0.645,1.866-0.951c0.323-0.157,0.646-0.31,0.972-0.46c0.615-0.283,1.232-0.559,1.857-0.816
				c0.374-0.154,0.755-0.292,1.133-0.437c0.435-0.167,0.87-0.334,1.31-0.488c0.419-0.147,0.842-0.282,1.265-0.418
				c0.407-0.13,0.814-0.258,1.224-0.378c0.442-0.129,0.886-0.251,1.333-0.368c0.399-0.105,0.8-0.202,1.203-0.297
				c0.455-0.107,0.91-0.212,1.369-0.307c0.41-0.084,0.824-0.157,1.237-0.231c0.449-0.081,0.897-0.165,1.35-0.233
				c0.506-0.076,1.015-0.135,1.524-0.196c0.36-0.043,0.717-0.097,1.079-0.132c0.877-0.085,1.758-0.148,2.643-0.187
				c0.179-0.008,0.36-0.007,0.54-0.013c0.768-0.026,1.537-0.041,2.31-0.031c0.127,0.001,0.253,0.007,0.38,0.009
				c0.873,0.017,1.747,0.051,2.623,0.114c0.012,0.001,0.024,0.002,0.036,0.003c0.961,0.069,1.924,0.166,2.888,0.29l1.247,0.161
				c10.437,1.6,20.066,6.449,27.672,14.056c9.444,9.443,14.645,22,14.645,35.355S300.42,310.912,290.976,320.355z"/>
		</g>
	</g>
</g>
<g>
</g>
<g>
</g>
<g>
</g>
<g>
</g>
<g>
</g>
<g>
</g>
<g>
</g>
<g>
</g>
<g>
</g>
<g>
</g>
<g>
</g>
<g>
</g>
<g>
</g>
<g>
</g>
<g>
</g>
</svg>
